<svg xmlns="http://www.w3.org/2000/svg" version="1.1" xmlns:xlink="http://www.w3.org/1999/xlink" xmlns:svgjs="http://svgjs.dev/svgjs" width="1000" height="1403" viewBox="0 0 1000 1403"><g transform="matrix(1,0,0,1,0.3801960121663228,0.5680427437945355)"><svg viewBox="0 0 176 247" data-background-color="#ffffff" preserveAspectRatio="xMidYMid meet" height="1403" width="1000" xmlns="http://www.w3.org/2000/svg" xmlns:xlink="http://www.w3.org/1999/xlink"><g id="tight-bounds" transform="matrix(1,0,0,1,-0.06691449814127282,-0.10000467406788971)"><svg viewBox="0 0 176.13382899628252 247.2" height="247.2" width="176.13382899628252"><g><svg viewBox="0 0 176.13382899628252 247.2" height="247.2" width="176.13382899628252"><g><svg viewBox="0 0 176.13382899628252 247.2" height="247.2" width="176.13382899628252"><g><svg viewBox="0 0 176.13382899628252 247.2" height="247.2" width="176.13382899628252"><g><svg viewBox="0 0 176.13382899628252 247.2" height="247.2" width="176.13382899628252"><g id="textblocktransform"><svg viewBox="0 0 176.13382899628252 247.2" height="247.2" width="176.13382899628252" id="textblock"><g><svg viewBox="0 0 176.13382899628252 247.2" height="247.2" width="176.13382899628252"><g transform="matrix(1,0,0,1,0,0)"><svg width="176.13382899628252" viewBox="1.5 -36 28.75 40.349998474121094" height="247.2" data-palette-color="#636365"><path d="M24.75 4.35L24.75 4.35Q23.65 4.35 22.2 3.05 20.75 1.75 19.13-0.4 17.5-2.55 15.93-5.08 14.35-7.6 13.03-10.1 11.7-12.6 10.8-14.55L10.8-14.55 5.95 1.15Q5.6 2.3 4.85 2.78 4.1 3.25 3.23 3.35 2.35 3.45 1.5 3.45L1.5 3.45Q2.15 2.05 2.83 0.25 3.5-1.55 4.42-4.1 5.35-6.65 6.6-10.3 7.85-13.95 9.58-19.03 11.3-24.1 13.65-30.95L13.65-30.95Q13.8-31.35 14.05-32.08 14.3-32.8 14.3-33.4L14.3-33.4Q14.3-33.95 14.05-34.27 13.8-34.6 13.1-34.6L13.1-34.6Q11.9-34.6 10.78-33.63 9.65-32.65 8.78-31.15 7.9-29.65 7.4-28.05 6.9-26.45 6.9-25.2L6.9-25.2Q6.9-24.25 7.15-23.5L7.15-23.5Q5.5-23.5 4.83-24.33 4.15-25.15 4.15-26.35L4.15-26.35Q4.15-28.05 5.15-29.75 6.15-31.45 7.73-32.88 9.3-34.3 11.03-35.15 12.75-36 14.15-36L14.15-36Q15.5-36 15.98-35.25 16.45-34.5 16.45-33.6L16.45-33.6Q16.45-33.05 16.32-32.5 16.2-31.95 16.05-31.45L16.05-31.45 11.85-17.85Q12.55-18.85 13.68-19.7 14.8-20.55 16.15-21.65L16.15-21.65Q18.4-23.45 20.98-25.85 23.55-28.25 25.9-30.9 28.25-33.55 29.8-36L29.8-36Q30.05-35.7 30.15-34.95 30.25-34.2 30.25-33.8L30.25-33.8Q30.25-32.25 28.98-30.4 27.7-28.55 25.65-26.58 23.6-24.6 21.15-22.68 18.7-20.75 16.32-19.05 13.95-17.35 12.05-16.1L12.05-16.1Q13.55-13.55 14.98-11.25 16.4-8.95 18.07-6.75 19.75-4.55 22-2.25 24.25 0.05 27.45 2.7L27.45 2.7Q27.1 3.35 26.35 3.85 25.6 4.35 24.75 4.35Z" opacity="1" transform="matrix(1,0,0,1,0,0)" fill="#ffffff" class="wordmark-text-0" data-fill-palette-color="primary" id="text-0"></path></svg></g></svg></g></svg></g></svg></g><g></g></svg></g></svg></g></svg></g><defs></defs></svg><rect width="176.13382899628252" height="247.2" fill="none" stroke="none" visibility="hidden"></rect></g></svg></g></svg>